<?xml version="1.0" standalone="no"?>
<!DOCTYPE svg PUBLIC "-//W3C//DTD SVG 20010904//EN"
 "http://www.w3.org/TR/2001/REC-SVG-20010904/DTD/svg10.dtd">
<svg version="1.0" xmlns="http://www.w3.org/2000/svg"
 width="1080.000000pt" height="1080.000000pt" viewBox="0 0 1080.000000 1080.000000"
 preserveAspectRatio="xMidYMid meet">

<g transform="translate(0.000000,1080.000000) scale(0.100000,-0.100000)"
fill="#000000" stroke="none">
<path d="M4770 7994 c-36 -8 -89 -19 -117 -25 -61 -13 -62 -16 -38 -113 43
-183 65 -279 80 -350 9 -44 18 -83 21 -88 7 -11 47 -10 81 3 15 6 52 15 82 21
156 28 271 142 271 266 0 19 -9 65 -20 102 -47 158 -180 226 -360 184z m189
-128 c43 -42 61 -86 61 -153 0 -78 -24 -117 -93 -148 -62 -30 -127 -34 -127
-8 0 9 -4 30 -10 47 -22 71 -61 259 -56 271 6 17 44 23 128 21 59 -1 71 -5 97
-30z"/>
<path d="M5325 7906 c-43 -19 -93 -63 -112 -100 -11 -20 -17 -56 -17 -101 0
-82 17 -120 77 -169 36 -29 45 -31 116 -31 68 0 83 3 120 28 53 35 60 53 32
80 l-21 22 -43 -23 c-24 -13 -60 -22 -84 -22 -34 0 -46 6 -67 31 -14 17 -26
39 -26 50 0 18 8 19 135 19 l135 0 0 33 c0 141 -125 235 -245 183z m127 -93
c10 -9 18 -24 18 -35 0 -16 -9 -18 -80 -18 -89 0 -102 12 -54 49 32 25 90 27
116 4z"/>
<path d="M5630 7884 c0 -11 7 -57 15 -104 8 -47 21 -127 29 -179 8 -51 20
-100 28 -107 7 -7 35 -14 62 -16 l49 -3 82 145 c45 80 90 159 101 177 10 17
16 35 12 39 -12 11 -92 23 -103 14 -5 -5 -37 -63 -70 -130 l-60 -122 -6 69
c-7 71 -28 215 -32 219 -1 2 -26 6 -55 10 -47 6 -52 5 -52 -12z"/>
<path d="M6661 7530 c-121 -162 -141 -199 -141 -257 1 -113 131 -232 253 -233
92 0 117 23 296 260 39 52 71 102 71 111 0 17 -52 59 -73 59 -8 0 -30 -21 -48
-46 -19 -25 -46 -60 -60 -77 -14 -18 -47 -63 -73 -100 -27 -37 -62 -75 -78
-83 -41 -21 -89 -11 -133 28 -30 26 -35 36 -35 75 0 41 8 55 107 186 58 78
108 152 110 163 4 16 -4 27 -30 43 -19 11 -39 21 -44 21 -6 0 -60 -67 -122
-150z"/>
<path d="M4204 7606 c-31 -14 -94 -89 -94 -112 0 -22 -21 -26 -41 -8 -17 15
-22 16 -44 4 -14 -7 -25 -19 -25 -25 0 -6 31 -63 69 -126 39 -63 100 -165 136
-226 37 -62 71 -115 76 -119 12 -7 89 36 89 50 0 6 -18 40 -39 75 l-39 65 61
30 c76 38 107 85 107 163 0 116 -103 244 -197 243 -15 -1 -42 -7 -59 -14z m90
-117 c33 -26 66 -89 66 -127 0 -50 -83 -109 -116 -81 -15 13 -94 140 -94 152
0 3 14 22 31 42 36 41 73 46 113 14z"/>
<path d="M6155 7450 c-38 -42 -9 -110 47 -110 35 0 68 32 68 65 0 54 -78 86
-115 45z"/>
<path d="M3820 7332 c-39 -19 -76 -77 -85 -134 l-7 -38 -28 17 c-28 16 -30 16
-50 -2 -11 -10 -20 -22 -20 -27 0 -8 59 -75 217 -248 13 -14 20 -26 15 -28 -4
-1 -131 29 -282 68 l-275 70 -32 -37 c-36 -40 -40 -58 -19 -82 7 -9 75 -108
151 -221 172 -257 162 -246 190 -220 12 11 28 31 35 45 11 21 9 28 -24 73 -20
27 -36 55 -36 62 0 9 108 171 114 170 1 0 26 -7 56 -15 75 -20 75 -20 107 25
15 22 33 40 39 40 5 0 32 -25 58 -55 26 -30 53 -55 59 -55 11 0 77 56 77 66 0
2 -25 32 -56 65 l-56 61 38 22 c53 29 104 107 104 158 0 103 -127 237 -225
238 -16 0 -46 -8 -65 -18z m114 -118 c79 -54 88 -164 14 -195 -37 -15 -52 -7
-112 58 -44 48 -48 56 -42 87 7 39 47 76 80 76 12 0 39 -12 60 -26z m-501
-339 c15 -8 45 -17 65 -21 20 -4 49 -12 65 -19 l27 -11 -30 -46 c-48 -73 -53
-74 -85 -26 -15 24 -35 52 -45 63 -10 11 -25 32 -35 48 -20 32 -7 36 38 12z"/>
<path d="M7165 7194 c-49 -47 -130 -122 -180 -167 -49 -45 -98 -92 -108 -104
-18 -22 -18 -24 5 -52 46 -57 45 -58 169 57 63 59 154 146 204 194 l90 87 -35
36 c-18 19 -39 35 -44 35 -6 -1 -51 -39 -101 -86z"/>
<path d="M7530 6924 c-52 -17 -414 -124 -575 -170 -75 -22 -88 -30 -75 -54 28
-52 24 -52 252 16 117 36 251 76 298 90 47 14 96 29 110 34 14 4 44 13 68 19
46 13 50 20 26 56 -18 28 -38 30 -104 9z"/>
<path d="M7559 6759 c-46 -23 -122 -59 -169 -81 -94 -44 -144 -86 -166 -137
-49 -117 33 -290 158 -330 49 -16 113 2 258 71 58 28 129 61 158 74 28 13 52
28 52 34 0 19 -40 90 -51 90 -6 0 -72 -30 -147 -66 -167 -81 -209 -96 -243
-89 -34 8 -73 50 -89 96 -12 32 -11 41 6 70 20 36 43 49 251 147 62 29 115 57
118 62 6 10 -28 85 -43 94 -5 3 -47 -13 -93 -35z"/>
<path d="M3168 6346 c-68 -30 -118 -124 -104 -198 11 -60 59 -123 112 -149 70
-34 166 -34 217 1 69 47 103 154 78 248 -10 36 -15 42 -39 42 -41 0 -51 -15
-41 -61 11 -48 -3 -108 -30 -133 -21 -19 -86 -33 -94 -19 -3 5 12 63 34 129
21 65 39 122 39 125 0 26 -123 37 -172 15z m79 -88 c-2 -7 -13 -39 -23 -72
-20 -64 -37 -79 -59 -50 -37 49 0 134 57 134 20 0 29 -4 25 -12z"/>
<path d="M7785 6130 c-60 -61 -116 -110 -123 -110 -7 0 -45 15 -85 34 -89 41
-202 86 -216 86 -14 0 -14 -34 0 -82 11 -43 22 -50 151 -93 l88 -30 -87 -87
-86 -86 11 -58 c7 -31 14 -60 17 -63 3 -3 61 50 128 117 l123 122 81 -35 c44
-19 85 -35 91 -35 5 0 29 -9 53 -20 67 -30 72 -28 65 28 -9 57 -29 77 -105 98
-82 22 -111 35 -111 47 0 6 34 43 75 82 l74 70 -9 54 c-5 30 -13 58 -17 62 -5
5 -58 -41 -118 -101z"/>
<path d="M2827 5973 c-15 -24 -18 -80 -4 -91 8 -7 77 -24 153 -38 77 -14 197
-36 268 -50 71 -13 132 -21 135 -18 3 2 5 28 6 57 0 51 0 51 -35 58 -19 3 -89
16 -155 28 -337 62 -361 66 -368 54z"/>
<path d="M2797 5732 c-25 -27 -22 -78 5 -96 31 -22 54 -20 78 6 24 26 26 56 4
86 -19 27 -64 29 -87 4z"/>
<path d="M2976 5722 c-3 -5 -8 -27 -12 -49 -8 -55 1 -59 161 -68 72 -4 149
-10 172 -15 23 -4 46 -4 51 -1 13 9 25 98 13 105 -5 3 -67 10 -138 16 -70 5
-153 12 -185 15 -31 3 -59 2 -62 -3z"/>
<path d="M3063 5522 c-98 -40 -135 -117 -98 -205 8 -19 21 -42 30 -50 13 -14
4 -16 -85 -22 -122 -9 -134 -16 -122 -70 l8 -40 119 0 c66 0 182 5 258 9 135
9 138 10 158 37 25 36 43 130 34 188 -19 133 -167 208 -302 153z m167 -107
c51 -26 67 -92 33 -134 -16 -20 -26 -22 -102 -19 l-84 3 -20 38 c-16 31 -17
42 -8 66 23 53 119 78 181 46z"/>
<path d="M7457 5443 c-9 -15 -19 -146 -18 -236 0 -78 4 -97 28 -144 37 -74 91
-110 194 -131 78 -15 82 -15 149 7 81 26 134 78 162 157 19 55 52 260 44 279
-3 8 -33 15 -78 20 -40 3 -98 10 -128 15 -49 9 -319 40 -340 40 -5 0 -11 -3
-13 -7z m321 -144 l122 -12 0 -28 c0 -62 -22 -128 -54 -166 l-34 -38 -84 0
c-77 0 -88 2 -121 28 -20 15 -44 41 -52 57 -15 30 -20 116 -8 159 5 22 10 23
57 18 28 -3 106 -11 174 -18z"/>
<path d="M3116 5058 c-90 -60 -121 -169 -75 -261 49 -97 155 -139 260 -102 87
31 132 97 133 191 0 73 -24 125 -78 168 -33 27 -47 31 -114 34 -73 4 -79 2
-126 -30z m208 -109 c33 -39 33 -69 0 -108 -48 -57 -154 -65 -194 -14 -55 70
8 153 117 153 45 0 54 -4 77 -31z"/>
<path d="M7408 4899 c-54 -32 -98 -119 -98 -193 0 -32 7 -70 15 -86 14 -27 17
-28 49 -18 l35 11 -6 66 c-5 62 -4 69 22 99 22 26 34 32 66 32 38 0 39 -1 33
-27 -4 -16 -22 -68 -40 -118 -40 -106 -41 -121 -11 -129 46 -12 132 -6 167 13
65 34 104 141 80 218 -30 92 -101 143 -210 150 -54 3 -71 0 -102 -18z m220
-154 c7 -14 12 -36 12 -48 0 -43 -52 -93 -83 -81 -12 4 -10 17 12 80 14 40 31
74 37 74 6 0 16 -11 22 -25z"/>
<path d="M3389 4676 c-30 -18 -75 -45 -100 -58 -24 -14 -73 -42 -109 -63 -36
-21 -91 -51 -122 -67 -81 -42 -82 -45 -47 -107 l31 -54 81 7 c45 3 136 12 202
19 66 8 121 13 123 11 2 -1 -12 -19 -31 -41 -39 -44 -175 -222 -197 -259 -14
-23 -13 -28 11 -72 14 -26 34 -48 43 -50 9 -2 47 14 84 36 37 22 103 59 147
82 44 24 98 54 120 66 22 13 59 33 83 46 48 25 53 44 21 94 -14 23 -25 31 -37
27 -24 -9 -261 -142 -297 -167 l-30 -21 22 30 c12 17 56 73 98 125 101 127
103 133 80 176 l-19 35 -85 -7 c-47 -3 -102 -10 -121 -14 -48 -12 -150 -23
-150 -17 0 2 29 18 63 35 63 30 256 138 269 150 11 11 -43 92 -61 92 -9 -1
-41 -16 -72 -34z"/>
<path d="M7238 4551 c-25 -28 -53 -66 -62 -85 -33 -69 -13 -161 41 -185 49
-23 87 -13 159 39 80 59 104 63 104 21 0 -16 -6 -36 -12 -43 -7 -8 -24 -26
-37 -41 l-24 -27 23 -25 c31 -33 42 -32 80 12 72 81 89 169 44 222 -48 57
-117 51 -195 -17 -52 -45 -73 -54 -94 -38 -25 18 -12 49 43 108 l45 49 -20 27
c-11 15 -27 28 -35 30 -9 2 -36 -20 -60 -47z"/>
<path d="M7059 4269 l-33 -42 25 -21 c14 -12 87 -66 163 -120 l139 -99 28 34
c16 19 29 42 29 51 0 10 -40 45 -102 89 -57 40 -126 89 -154 110 -28 22 -53
39 -57 39 -3 0 -20 -19 -38 -41z"/>
<path d="M6851 4243 c-49 -24 -149 -120 -172 -164 -32 -64 -20 -143 28 -172
21 -13 15 -25 -27 -48 -22 -13 -40 -28 -40 -34 0 -6 29 -51 65 -101 36 -49 68
-99 71 -112 8 -31 -13 -77 -43 -98 -36 -23 -65 -5 -116 71 -22 33 -55 81 -74
107 l-35 48 -44 -31 c-24 -16 -44 -34 -44 -38 0 -5 12 -24 28 -43 15 -19 52
-71 82 -115 65 -96 100 -123 158 -123 55 0 116 52 134 114 15 55 24 63 46 43
24 -22 45 -21 67 2 17 19 14 24 -71 146 -49 69 -99 141 -110 158 l-21 32 37
-3 c50 -5 93 18 163 89 31 33 62 59 68 59 27 0 18 -33 -21 -77 -49 -56 -60
-80 -60 -133 0 -30 8 -48 31 -74 16 -19 39 -38 49 -41 16 -5 19 -14 17 -53 -2
-46 -1 -47 30 -50 27 -3 33 1 37 20 3 13 7 35 10 49 4 16 21 37 46 53 22 14
54 45 70 68 25 34 30 50 30 99 0 51 -4 61 -31 88 -28 29 -43 36 -94 43 -14 2
-22 15 -28 44 -8 45 -33 74 -64 77 -13 1 -20 9 -21 30 -6 78 -72 109 -151 70z
m63 -99 c9 -8 16 -20 16 -25 0 -16 -100 -118 -122 -125 -27 -8 -52 17 -43 45
9 30 54 80 90 102 37 23 39 23 59 3z m222 -249 c20 -31 9 -65 -30 -90 -58 -38
-117 44 -67 94 30 30 76 27 97 -4z"/>
<path d="M3938 4055 c-43 -29 -65 -82 -48 -115 8 -15 21 -20 55 -20 40 0 45 2
45 23 0 41 27 67 70 67 30 0 42 5 50 21 7 11 10 22 8 23 -52 34 -131 34 -180
1z"/>
<path d="M7447 4002 c-20 -22 -22 -73 -5 -90 7 -7 27 -12 44 -12 55 0 85 68
46 103 -24 22 -65 21 -85 -1z"/>
<path d="M4004 3846 c-51 -22 -100 -73 -128 -131 -32 -67 -33 -112 -5 -160 25
-42 64 -64 126 -74 l44 -6 -60 -84 c-34 -46 -61 -88 -61 -92 0 -10 64 -59 77
-59 8 0 279 360 307 408 12 19 -34 99 -82 143 -72 67 -147 86 -218 55z m144
-111 c46 -39 45 -55 -10 -129 -38 -50 -56 -66 -74 -66 -38 0 -84 28 -95 58
-23 61 53 162 123 162 14 0 40 -11 56 -25z"/>
<path d="M4355 3626 c-16 -12 -18 -19 -10 -42 10 -26 14 -28 57 -25 77 4 138
-39 138 -99 0 -20 -3 -39 -6 -42 -7 -7 -44 8 -156 62 -45 22 -87 39 -94 36
-18 -7 -37 -92 -32 -140 9 -78 69 -134 160 -151 111 -21 231 101 230 233 -1
72 -33 121 -103 156 -60 30 -152 36 -184 12z m98 -257 c45 -23 46 -34 7 -48
-64 -22 -120 11 -120 71 l0 27 38 -16 c20 -8 54 -24 75 -34z"/>
<path d="M6225 3601 c-57 -26 -105 -69 -122 -110 -14 -33 -14 -36 7 -53 31
-25 43 -23 69 13 27 37 78 69 109 69 30 0 78 -25 86 -45 6 -16 -40 -41 -179
-98 -32 -14 -61 -29 -62 -34 -7 -20 64 -107 102 -127 52 -27 99 -26 158 3 96
47 132 155 88 264 -48 119 -151 166 -256 118z m175 -239 c0 -61 -96 -105 -134
-63 -11 12 -17 23 -15 25 6 6 133 64 142 65 4 1 7 -12 7 -27z"/>
<path d="M5973 3480 c-51 -23 -52 -29 -18 -150 14 -49 25 -98 25 -109 0 -28
-51 -61 -94 -61 -36 0 -36 0 -36 -45 0 -84 66 -83 138 2 l38 44 14 -26 c14
-26 43 -32 70 -15 15 9 6 56 -35 200 -7 25 -21 75 -30 113 -9 37 -20 67 -24
66 -3 0 -25 -9 -48 -19z"/>
<path d="M4807 3419 c-19 -35 -71 -131 -115 -214 -44 -82 -91 -169 -104 -192
-28 -51 -21 -60 46 -65 44 -3 51 0 63 22 7 14 48 99 92 189 l79 164 7 -84 c3
-46 13 -129 21 -183 8 -55 14 -112 14 -126 0 -22 6 -29 39 -38 44 -14 81 -16
81 -4 0 4 -5 37 -10 73 -11 74 -15 61 92 240 l37 62 4 -34 c3 -19 13 -92 21
-164 9 -71 19 -149 22 -172 3 -24 9 -45 13 -47 4 -3 31 -8 59 -12 l52 -7 0 32
c0 18 -5 51 -10 74 -6 23 -14 76 -20 117 -23 194 -43 326 -50 346 -6 16 -20
23 -54 28 -25 4 -49 5 -53 2 -5 -2 -37 -61 -73 -130 -36 -69 -67 -126 -70
-126 -3 0 -13 64 -22 141 -9 78 -20 145 -25 150 -5 5 -29 12 -55 15 l-46 6
-35 -63z"/>
<path d="M5468 3413 c-24 -28 -29 -53 -16 -76 14 -29 27 -37 59 -37 38 0 62
23 62 58 0 61 -69 96 -105 55z"/>
</g>
</svg>
