<?xml version="1.0" standalone="no"?>
<!DOCTYPE svg PUBLIC "-//W3C//DTD SVG 20010904//EN"
 "http://www.w3.org/TR/2001/REC-SVG-20010904/DTD/svg10.dtd">
<svg version="1.0" xmlns="http://www.w3.org/2000/svg"
 width="1200.000000pt" height="1200.000000pt" viewBox="0 0 1200.000000 1200.000000"
 preserveAspectRatio="xMidYMid meet">

<g transform="translate(0.000000,1200.000000) scale(0.100000,-0.100000)"
fill="#000000" stroke="none">
<path d="M2645 9166 c-60 -28 -97 -66 -124 -126 -20 -45 -21 -54 -21 -2092 l0
-2048 3500 0 3500 0 0 2048 0 2047 -24 50 c-28 60 -66 97 -126 124 -45 21 -47
21 -3350 21 l-3305 0 -50 -24z m6645 -2136 l0 -1940 -1510 -2 c-830 -1 -1811
-2 -2180 -2 -368 0 -1169 1 -1780 2 l-1110 2 0 1940 0 1940 3290 0 3290 0 0
-1940z"/>
<path d="M8330 4644 c-6 -14 -10 -27 -10 -30 0 -2 86 -4 190 -4 105 0 190 3
190 8 0 4 -3 17 -6 30 -6 22 -8 22 -180 22 l-174 0 -10 -26z"/>
<path d="M2822 4635 l-12 -25 190 0 190 0 0 25 0 25 -178 0 -179 0 -11 -25z"/>
<path d="M3276 4644 c-3 -9 -6 -20 -6 -25 0 -5 75 -9 175 -9 l175 0 0 25 0 25
-169 0 c-145 0 -170 -2 -175 -16z"/>
<path d="M3736 4644 c-3 -9 -6 -20 -6 -25 0 -5 79 -9 184 -9 l183 0 -5 25 -4
25 -173 0 c-148 0 -174 -2 -179 -16z"/>
<path d="M4190 4651 c0 -5 -3 -16 -6 -25 -5 -14 15 -16 186 -16 l191 0 -3 23
c-3 22 -5 22 -185 25 -110 1 -183 -1 -183 -7z"/>
<path d="M4640 4635 l0 -25 186 0 185 0 -3 23 c-3 22 -5 22 -185 25 l-183 2 0
-25z"/>
<path d="M5108 4635 l-5 -25 189 0 c169 0 189 2 184 16 -3 9 -6 20 -6 25 0 5
-77 9 -179 9 l-179 0 -4 -25z"/>
<path d="M5560 4651 c0 -5 -3 -16 -6 -25 -5 -14 16 -16 194 -16 l199 0 -5 25
-4 25 -189 0 c-108 0 -189 -4 -189 -9z"/>
<path d="M6026 4644 c-3 -9 -6 -20 -6 -25 0 -5 84 -9 196 -9 175 0 195 2 190
16 -3 9 -6 20 -6 25 0 5 -79 9 -184 9 -158 0 -185 -2 -190 -16z"/>
<path d="M6477 4654 c-4 -4 -7 -16 -7 -26 0 -17 13 -18 200 -18 l199 0 -8 23
c-8 22 -12 22 -193 25 -101 1 -187 -1 -191 -4z"/>
<path d="M6928 4635 l-5 -25 202 0 202 0 -5 25 -4 25 -193 0 -193 0 -4 -25z"/>
<path d="M7400 4635 l0 -25 196 0 195 0 -3 23 c-3 22 -4 22 -195 25 l-193 2 0
-25z"/>
<path d="M7858 4635 l-5 -25 199 0 c178 0 199 2 194 16 -3 9 -6 20 -6 25 0 5
-81 9 -189 9 l-189 0 -4 -25z"/>
<path d="M8780 4651 c0 -5 -3 -16 -6 -25 -5 -14 15 -16 190 -16 l196 0 -12 25
-11 25 -179 0 c-101 0 -178 -4 -178 -9z"/>
<path d="M2773 4530 c-13 -21 -23 -44 -23 -49 0 -8 73 -11 220 -11 l220 0 0
50 0 50 -197 0 -198 0 -22 -40z"/>
<path d="M3252 4532 c-7 -22 -12 -44 -12 -51 0 -8 55 -11 191 -11 l190 0 -3
48 -3 47 -176 3 -176 2 -11 -38z"/>
<path d="M3681 4533 c-19 -67 -30 -63 194 -63 228 0 214 -5 199 69 l-6 31
-189 0 -188 0 -10 -37z"/>
<path d="M4167 4563 c-3 -5 -8 -27 -12 -50 l-7 -43 206 0 206 0 0 50 0 50
-194 0 c-107 0 -197 -3 -199 -7z"/>
<path d="M4615 4558 c-2 -7 -6 -30 -10 -50 l-6 -38 216 0 216 0 -6 38 c-4 20
-8 43 -10 50 -3 9 -52 12 -200 12 -148 0 -197 -3 -200 -12z"/>
<path d="M5105 4558 c-2 -7 -6 -30 -10 -50 l-6 -38 196 0 195 0 0 50 0 50
-185 0 c-140 0 -187 -3 -190 -12z"/>
<path d="M5546 4539 c-15 -74 -30 -69 204 -69 l210 0 0 28 c0 15 -3 37 -6 50
-6 22 -7 22 -204 22 l-197 0 -7 -31z"/>
<path d="M6025 4558 c-2 -7 -6 -30 -10 -51 l-6 -37 203 2 203 3 -3 25 c-8 76
9 70 -198 70 -139 0 -186 -3 -189 -12z"/>
<path d="M6476 4554 c-3 -9 -6 -31 -6 -50 l0 -34 205 0 205 0 -5 25 c-3 14 -7
36 -10 50 l-5 25 -189 0 c-163 0 -190 -2 -195 -16z"/>
<path d="M6940 4558 c0 -7 -3 -30 -6 -50 l-7 -38 202 0 201 0 0 50 0 50 -195
0 c-149 0 -195 -3 -195 -12z"/>
<path d="M7407 4564 c-4 -4 -7 -27 -7 -51 l0 -43 201 0 200 0 -3 48 -3 47
-191 3 c-104 1 -193 -1 -197 -4z"/>
<path d="M7867 4563 c-3 -5 -7 -26 -9 -48 l-3 -40 208 -3 c114 -1 207 0 207 3
0 4 -5 26 -11 51 l-11 44 -189 0 c-103 0 -190 -3 -192 -7z"/>
<path d="M8340 4543 c0 -16 -3 -38 -6 -50 l-6 -23 191 0 191 0 0 28 c0 15 -3
37 -6 50 -6 22 -8 22 -185 22 l-179 0 0 -27z"/>
<path d="M8787 4563 c-4 -3 -7 -26 -7 -50 l0 -43 225 0 225 0 -25 50 -25 50
-194 0 c-106 0 -196 -3 -199 -7z"/>
<path d="M2690 4370 l-30 -60 365 0 365 0 0 60 0 60 -335 0 -335 0 -30 -60z"/>
<path d="M3446 4422 c-3 -5 -8 -32 -12 -60 l-7 -52 292 0 c239 0 291 2 291 14
0 7 -3 34 -6 60 l-7 46 -273 0 c-150 0 -275 -4 -278 -8z"/>
<path d="M4077 4423 c-3 -5 -8 -32 -12 -60 l-7 -53 191 0 191 0 0 29 c0 16 -3
43 -6 60 l-6 31 -174 0 c-95 0 -175 -3 -177 -7z"/>
<path d="M4516 4422 c-3 -5 -8 -32 -12 -60 l-7 -52 192 0 191 0 0 23 c0 12 -3
39 -6 60 l-7 37 -173 0 c-95 0 -175 -4 -178 -8z"/>
<path d="M4946 4393 c-3 -21 -6 -48 -6 -60 l0 -23 191 0 192 0 -7 38 c-3 20
-6 47 -6 60 0 22 0 22 -179 22 l-178 0 -7 -37z"/>
<path d="M5385 4388 c-3 -24 -9 -51 -11 -60 -5 -17 9 -18 192 -18 l197 0 -7
31 c-3 17 -6 44 -6 60 l0 29 -179 0 -179 0 -7 -42z"/>
<path d="M5835 4393 c-3 -21 -9 -48 -12 -60 l-5 -23 189 0 c104 0 192 2 194 4
3 3 2 29 -1 58 l-5 53 -176 3 -177 2 -7 -37z"/>
<path d="M6276 4400 c-3 -16 -9 -43 -12 -60 l-6 -30 192 0 191 0 -3 58 -3 57
-177 3 -176 2 -6 -30z"/>
<path d="M6715 4393 c-3 -21 -9 -48 -12 -60 l-5 -23 189 0 c104 0 192 2 194 4
3 3 2 29 -1 58 l-5 53 -176 3 -177 2 -7 -37z"/>
<path d="M7145 4388 c-3 -24 -9 -51 -11 -60 -5 -17 9 -18 191 -18 l197 0 -6
23 c-3 12 -6 39 -6 60 l0 37 -179 0 -179 0 -7 -42z"/>
<path d="M7563 4375 c-5 -30 -7 -57 -5 -60 3 -3 91 -5 195 -5 l190 0 -7 38
c-3 20 -6 47 -6 60 0 22 0 22 -178 22 l-179 0 -10 -55z"/>
<path d="M7997 4423 c-3 -5 -8 -32 -12 -60 l-7 -53 191 0 191 0 0 38 c0 86 9
82 -186 82 -95 0 -175 -3 -177 -7z"/>
<path d="M8416 4422 c-3 -5 -8 -32 -12 -60 l-7 -52 192 0 191 0 0 23 c0 12 -3
39 -6 60 l-7 37 -173 0 c-95 0 -175 -4 -178 -8z"/>
<path d="M8810 4391 c0 -22 -3 -46 -6 -55 -6 -14 20 -16 245 -16 138 0 251 2
251 5 0 3 -11 28 -25 55 l-25 50 -220 0 -220 0 0 -39z"/>
<path d="M2621 4230 l-32 -60 492 0 492 0 -7 31 c-3 17 -6 44 -6 60 l0 29
-454 0 -453 0 -32 -60z"/>
<path d="M3626 4259 c-3 -17 -6 -44 -6 -60 l0 -29 245 0 245 0 0 44 c0 81 16
76 -245 76 l-232 0 -7 -31z"/>
<path d="M4176 4278 c-3 -7 -7 -34 -10 -60 l-6 -48 205 0 205 0 0 44 c0 80 11
76 -201 76 -143 0 -191 -3 -193 -12z"/>
<path d="M4626 4259 c-3 -17 -6 -44 -6 -60 l0 -29 176 0 177 0 -7 46 c-3 26
-6 53 -6 60 0 11 -32 14 -164 14 l-163 0 -7 -31z"/>
<path d="M5016 4274 c-3 -9 -6 -36 -6 -60 l0 -44 176 0 176 0 -6 23 c-3 12 -6
39 -6 60 l0 37 -164 0 c-140 0 -165 -2 -170 -16z"/>
<path d="M5416 4268 c-3 -13 -6 -40 -6 -60 l0 -38 176 0 177 0 -7 38 c-3 20
-6 47 -6 60 0 22 -1 22 -164 22 -161 0 -164 0 -170 -22z"/>
<path d="M5816 4253 c-14 -90 -28 -83 169 -83 197 0 183 -7 169 83 l-7 37
-162 0 -162 0 -7 -37z"/>
<path d="M6220 4261 c0 -15 -3 -43 -6 -60 l-6 -31 176 0 177 0 -3 58 -3 57
-167 3 -168 2 0 -29z"/>
<path d="M6626 4259 c-3 -17 -6 -44 -6 -60 l0 -29 176 0 177 0 -7 46 c-3 26
-6 53 -6 60 0 11 -32 14 -164 14 l-163 0 -7 -31z"/>
<path d="M7030 4261 c0 -15 -3 -43 -6 -60 l-6 -31 176 0 177 0 -3 58 -3 57
-167 3 -168 2 0 -29z"/>
<path d="M7437 4283 c-4 -3 -7 -30 -7 -60 l0 -53 176 0 c157 0 175 2 170 16
-3 9 -6 36 -6 60 l0 44 -163 0 c-90 0 -167 -3 -170 -7z"/>
<path d="M7830 4261 c0 -15 -3 -43 -6 -60 l-6 -31 176 0 177 0 -3 58 -3 57
-167 3 -168 2 0 -29z"/>
<path d="M8227 4283 c-4 -3 -7 -30 -7 -60 l0 -53 173 0 172 0 -3 60 -4 60
-162 0 c-90 0 -166 -3 -169 -7z"/>
<path d="M8615 4278 c-2 -7 -5 -34 -8 -60 l-5 -48 384 0 c211 0 384 3 384 6 0
4 -14 31 -31 60 l-30 54 -345 0 c-267 0 -346 -3 -349 -12z"/>
<path d="M2543 4065 l-32 -55 265 0 264 0 0 55 0 55 -233 0 -233 0 -31 -55z"/>
<path d="M3106 4088 c-8 -18 -17 -43 -20 -55 l-7 -23 175 0 176 0 0 55 0 55
-156 0 -155 0 -13 -32z"/>
<path d="M3500 4118 c0 -2 -9 -27 -20 -55 l-20 -53 175 0 175 0 0 55 0 55
-155 0 c-85 0 -155 -1 -155 -2z"/>
<path d="M3876 4088 c-8 -18 -17 -43 -20 -55 l-7 -23 175 0 176 0 0 55 0 55
-156 0 -155 0 -13 -32z"/>
<path d="M4276 4087 c-35 -85 -50 -77 148 -77 l176 0 0 55 0 55 -155 0 -155 0
-14 -33z"/>
<path d="M4676 4087 c-35 -85 -50 -77 148 -77 l176 0 0 55 0 55 -155 0 -155 0
-14 -33z"/>
<path d="M5057 4073 c-9 -27 -17 -51 -17 -55 0 -5 79 -8 176 -8 l175 0 -3 53
-3 52 -155 3 -156 2 -17 -47z"/>
<path d="M5470 4118 c0 -2 -9 -27 -20 -55 l-20 -53 175 0 175 0 0 55 0 55
-155 0 c-85 0 -155 -1 -155 -2z"/>
<path d="M5873 4103 c-3 -10 -12 -33 -19 -52 -8 -18 -14 -35 -14 -37 0 -2 79
-4 175 -4 l175 0 0 55 0 55 -155 0 c-139 0 -156 -2 -162 -17z"/>
<path d="M6280 4118 c0 -2 -9 -27 -20 -55 l-20 -53 175 0 175 0 0 55 0 55
-155 0 c-85 0 -155 -1 -155 -2z"/>
<path d="M6680 4115 c0 -2 -9 -27 -20 -55 l-20 -50 175 0 175 0 0 55 0 55
-155 0 c-85 0 -155 -2 -155 -5z"/>
<path d="M7065 4078 c-9 -24 -19 -49 -22 -55 -4 -10 34 -13 171 -13 l176 0 0
55 0 55 -154 0 -154 0 -17 -42z"/>
<path d="M7450 4074 c-11 -25 -20 -50 -20 -55 0 -5 76 -9 175 -9 l175 0 0 55
0 55 -155 0 -156 0 -19 -46z"/>
<path d="M7860 4115 c0 -2 -9 -27 -20 -55 l-20 -50 175 0 175 0 0 55 0 55
-155 0 c-85 0 -155 -2 -155 -5z"/>
<path d="M8240 4074 c-11 -25 -20 -50 -20 -55 0 -5 76 -9 175 -9 l175 0 0 55
0 55 -155 0 -156 0 -19 -46z"/>
<path d="M8626 4070 c-10 -28 -16 -53 -14 -56 3 -2 195 -3 427 -2 l421 3 -35
53 -36 52 -372 0 -373 0 -18 -50z"/>
<path d="M2452 3895 l-42 -65 441 0 440 0 -7 58 c-3 31 -8 60 -11 65 -2 4
-178 7 -391 7 l-387 0 -43 -65z"/>
<path d="M3403 3943 c-3 -10 -14 -39 -24 -65 l-19 -48 255 0 255 0 0 43 c0 94
18 87 -236 87 -205 0 -225 -2 -231 -17z"/>
<path d="M3956 3952 c-4 -7 -46 -115 -46 -119 0 -2 115 -3 256 -3 l256 0 -7
58 c-4 31 -9 60 -12 65 -6 9 -440 9 -447 -1z"/>
<path d="M4520 3957 c0 -2 -11 -31 -24 -65 l-25 -62 255 0 254 0 0 43 c0 94
18 87 -236 87 -123 0 -224 -1 -224 -3z"/>
<path d="M5071 3918 c-11 -24 -22 -53 -26 -65 l-6 -23 255 0 255 0 -5 53 c-3
28 -7 58 -10 65 -2 9 -56 12 -224 12 l-221 0 -18 -42z"/>
<path d="M5635 3948 c-10 -30 -25 -94 -25 -105 0 -10 39 -13 160 -13 180 0
166 -8 154 84 l-7 46 -139 0 c-102 0 -140 -3 -143 -12z"/>
<path d="M6025 3948 c-10 -30 -25 -94 -25 -105 0 -10 39 -13 160 -13 l160 0 0
34 c0 18 -3 48 -6 65 l-6 31 -140 0 c-102 0 -140 -3 -143 -12z"/>
<path d="M6411 3938 c-5 -13 -12 -42 -16 -65 l-7 -43 162 0 163 0 -7 46 c-3
26 -6 55 -6 65 0 18 -10 19 -140 19 -137 0 -141 -1 -149 -22z"/>
<path d="M6807 3953 c-3 -5 -12 -34 -20 -65 l-15 -58 165 0 165 0 -6 23 c-3
12 -6 41 -6 65 l0 42 -139 0 c-77 0 -142 -3 -144 -7z"/>
<path d="M7200 3953 c-1 -5 -7 -34 -14 -65 l-14 -58 159 0 160 0 -3 63 -3 62
-142 3 c-79 1 -143 -1 -143 -5z"/>
<path d="M7587 3953 c-3 -5 -12 -34 -20 -65 l-15 -58 165 0 c146 0 164 2 159
16 -3 9 -6 38 -6 65 l0 49 -139 0 c-77 0 -142 -3 -144 -7z"/>
<path d="M7951 3923 c-5 -21 -13 -50 -17 -65 l-6 -28 816 0 c449 0 816 2 816
6 0 3 -18 32 -40 65 l-41 59 -759 0 -759 0 -10 -37z"/>
<path d="M5245 3698 c-3 -7 -30 -101 -60 -208 -30 -107 -59 -210 -64 -227
l-10 -33 889 0 888 0 -9 33 c-5 17 -35 124 -67 237 l-58 205 -752 3 c-597 2
-754 0 -757 -10z"/>
</g>
</svg>
